<svg width="167" height="28" viewBox="0 0 167 28" fill="none" xmlns="http://www.w3.org/2000/svg">
<path d="M9 23.3333H10.5V17.1111C11.125 17.1111 11.6565 16.8845 12.0945 16.4313C12.5325 15.9781 12.751 15.427 12.75 14.7778V10.1111H11.25V14.7778H10.5V10.1111H9V14.7778H8.25V10.1111H6.75V14.7778C6.75 15.4259 6.969 15.9771 7.407 16.4313C7.845 16.8856 8.376 17.1121 9 17.1111V23.3333ZM15 23.3333H16.5V10.1111C15.675 10.1111 14.969 10.416 14.382 11.0258C13.795 11.6356 13.501 12.3677 13.5 13.2222V17.8889H15V23.3333ZM0 28V9.33333L12 0L24 9.33333V28H0ZM3 24.8889H21V10.8889L12 3.88889L3 10.8889V24.8889Z" fill="#96AE00"/>
<path d="M29.592 26V4.816H39.128C41.3893 4.816 43.1707 5.43467 44.472 6.672C45.7733 7.888 46.424 9.54133 46.424 11.632C46.424 13.7227 45.7733 15.3867 44.472 16.624C43.1707 17.84 41.3893 18.448 39.128 18.448H31.992V26H29.592ZM31.992 16.208H38.968C40.632 16.208 41.8907 15.8027 42.744 14.992C43.5973 14.1813 44.024 13.0613 44.024 11.632C44.024 10.224 43.5973 9.11467 42.744 8.304C41.8907 7.49333 40.632 7.088 38.968 7.088H31.992V16.208ZM55.9258 26.256C54.3684 26.256 53.0031 25.8933 51.8298 25.168C50.6778 24.4213 49.7818 23.4187 49.1418 22.16C48.5018 20.9013 48.1818 19.5147 48.1818 18C48.1818 16.464 48.5018 15.0773 49.1418 13.84C49.7818 12.5813 50.6778 11.5893 51.8298 10.864C53.0031 10.1173 54.3684 9.744 55.9258 9.744C57.2484 9.744 58.3791 10 59.3178 10.512C60.2778 11.024 61.0564 11.7173 61.6538 12.592V10H64.0538V26H61.6538V23.44C61.0564 24.2933 60.2778 24.976 59.3178 25.488C58.3791 26 57.2484 26.256 55.9258 26.256ZM56.2458 24.08C57.4404 24.08 58.4431 23.8027 59.2538 23.248C60.0858 22.6933 60.7151 21.9573 61.1418 21.04C61.5684 20.1013 61.7818 19.088 61.7818 18C61.7818 16.8907 61.5684 15.8773 61.1418 14.96C60.7151 14.0427 60.0858 13.3067 59.2538 12.752C58.4431 12.1973 57.4404 11.92 56.2458 11.92C55.0724 11.92 54.0591 12.1973 53.2058 12.752C52.3524 13.3067 51.7018 14.0427 51.2538 14.96C50.8058 15.8773 50.5818 16.8907 50.5818 18C50.5818 19.088 50.8058 20.1013 51.2538 21.04C51.7018 21.9573 52.3524 22.6933 53.2058 23.248C54.0591 23.8027 55.0724 24.08 56.2458 24.08ZM74.029 26.256C72.557 26.256 71.309 26.0107 70.285 25.52C69.2823 25.0293 68.5143 24.3893 67.981 23.6C67.4477 22.7893 67.149 21.9147 67.085 20.976H69.581C69.645 21.5093 69.8263 22.032 70.125 22.544C70.445 23.0347 70.925 23.44 71.565 23.76C72.205 24.0587 73.037 24.208 74.061 24.208C74.381 24.208 74.7757 24.176 75.245 24.112C75.7143 24.048 76.1623 23.9307 76.589 23.76C77.037 23.5893 77.4103 23.3333 77.709 22.992C78.0077 22.6507 78.157 22.2133 78.157 21.68C78.157 21.0187 77.901 20.5067 77.389 20.144C76.877 19.7813 76.2157 19.504 75.405 19.312C74.5943 19.0987 73.7303 18.896 72.813 18.704C71.917 18.512 71.0637 18.2667 70.253 17.968C69.4423 17.648 68.781 17.2107 68.269 16.656C67.757 16.08 67.501 15.3013 67.501 14.32C67.501 12.8693 68.0237 11.7493 69.069 10.96C70.1357 10.1493 71.7037 9.744 73.773 9.744C75.181 9.744 76.3223 9.968 77.197 10.416C78.093 10.8427 78.765 11.3973 79.213 12.08C79.6823 12.7627 79.9597 13.4987 80.045 14.288H77.613C77.5277 13.6053 77.1863 13.0187 76.589 12.528C76.013 12.0373 75.053 11.792 73.709 11.792C71.1703 11.792 69.901 12.56 69.901 14.096C69.901 14.736 70.157 15.2267 70.669 15.568C71.181 15.9093 71.8423 16.1867 72.653 16.4C73.4637 16.592 74.317 16.784 75.213 16.976C76.1303 17.1467 76.9943 17.392 77.805 17.712C78.6157 18.032 79.277 18.4907 79.789 19.088C80.301 19.664 80.557 20.4533 80.557 21.456C80.557 23.0133 79.9597 24.208 78.765 25.04C77.5917 25.8507 76.013 26.256 74.029 26.256ZM85.3705 26V12.112H82.1065V10H85.3705V4.272H87.7705V10H91.4505V12.112H87.7705V26H85.3705ZM100.52 26.256C98.9622 26.256 97.5968 25.8933 96.4235 25.168C95.2715 24.4213 94.3755 23.4187 93.7355 22.16C93.0955 20.9013 92.7755 19.5147 92.7755 18C92.7755 16.464 93.0955 15.0773 93.7355 13.84C94.3755 12.5813 95.2715 11.5893 96.4235 10.864C97.5968 10.1173 98.9622 9.744 100.52 9.744C101.842 9.744 102.973 10 103.912 10.512C104.872 11.024 105.65 11.7173 106.248 12.592V10H108.648V26H106.248V23.44C105.65 24.2933 104.872 24.976 103.912 25.488C102.973 26 101.842 26.256 100.52 26.256ZM100.84 24.08C102.034 24.08 103.037 23.8027 103.848 23.248C104.68 22.6933 105.309 21.9573 105.736 21.04C106.162 20.1013 106.376 19.088 106.376 18C106.376 16.8907 106.162 15.8773 105.736 14.96C105.309 14.0427 104.68 13.3067 103.848 12.752C103.037 12.1973 102.034 11.92 100.84 11.92C99.6662 11.92 98.6528 12.1973 97.7995 12.752C96.9462 13.3067 96.2955 14.0427 95.8475 14.96C95.3995 15.8773 95.1755 16.8907 95.1755 18C95.1755 19.088 95.3995 20.1013 95.8475 21.04C96.2955 21.9573 96.9462 22.6933 97.7995 23.248C98.6528 23.8027 99.6662 24.08 100.84 24.08Z" fill="#2A6E5A"/>
<path d="M120.123 26V4.816H129.659C131.921 4.816 133.702 5.43467 135.003 6.672C136.305 7.888 136.955 9.54133 136.955 11.632C136.955 13.7227 136.305 15.3867 135.003 16.624C133.702 17.84 131.921 18.448 129.659 18.448H122.523V26H120.123ZM122.523 16.208H129.499C131.163 16.208 132.422 15.8027 133.275 14.992C134.129 14.1813 134.555 13.0613 134.555 11.632C134.555 10.224 134.129 9.11467 133.275 8.304C132.422 7.49333 131.163 7.088 129.499 7.088H122.523V16.208ZM139.705 26V10H142.105V13.936C142.19 13.6587 142.35 13.296 142.585 12.848C142.841 12.3787 143.204 11.9093 143.673 11.44C144.142 10.9707 144.729 10.576 145.433 10.256C146.158 9.91467 147.012 9.744 147.993 9.744H148.153V12.144H147.865C146.67 12.144 145.636 12.4747 144.761 13.136C143.908 13.776 143.246 14.6187 142.777 15.664C142.329 16.688 142.105 17.7867 142.105 18.96V26H139.705ZM157.274 26.256C155.653 26.256 154.245 25.8933 153.05 25.168C151.855 24.4213 150.938 23.4187 150.298 22.16C149.658 20.9013 149.338 19.5147 149.338 18C149.338 16.464 149.658 15.0773 150.298 13.84C150.938 12.5813 151.855 11.5893 153.05 10.864C154.245 10.1173 155.653 9.744 157.274 9.744C158.917 9.744 160.325 10.1173 161.498 10.864C162.693 11.5893 163.61 12.5813 164.25 13.84C164.89 15.0773 165.21 16.464 165.21 18C165.21 19.5147 164.89 20.9013 164.25 22.16C163.61 23.4187 162.693 24.4213 161.498 25.168C160.325 25.8933 158.917 26.256 157.274 26.256ZM157.274 24.08C158.469 24.08 159.471 23.8027 160.282 23.248C161.114 22.6933 161.743 21.9573 162.17 21.04C162.597 20.1013 162.81 19.088 162.81 18C162.81 16.8907 162.597 15.8773 162.17 14.96C161.743 14.0427 161.114 13.3067 160.282 12.752C159.471 12.1973 158.469 11.92 157.274 11.92C156.101 11.92 155.098 12.1973 154.266 12.752C153.434 13.3067 152.805 14.0427 152.378 14.96C151.951 15.8773 151.738 16.8907 151.738 18C151.738 19.088 151.951 20.1013 152.378 21.04C152.805 21.9573 153.434 22.6933 154.266 23.248C155.098 23.8027 156.101 24.08 157.274 24.08Z" fill="#96AE00"/>
</svg>
