<svg width="144" height="16" viewBox="0 0 144 16" fill="none" xmlns="http://www.w3.org/2000/svg">
<path d="M8 1.12978L9.78644 4.74949C9.9321 5.04464 10.2137 5.24921 10.5394 5.29654L14.534 5.87698L11.6435 8.69454C11.4078 8.92428 11.3002 9.25528 11.3559 9.57967L12.0382 13.5581L8.46534 11.6798C8.17402 11.5266 7.82598 11.5266 7.53466 11.6798L3.96178 13.5581L4.64414 9.57967C4.69978 9.25528 4.59223 8.92428 4.35654 8.69454L1.46603 5.87698L5.46062 5.29654C5.78634 5.24921 6.0679 5.04464 6.21356 4.74949L8 1.12978Z" stroke="#FFB800"/>
<path d="M28 1.12978L29.7864 4.74949C29.9321 5.04464 30.2137 5.24921 30.5394 5.29654L34.534 5.87698L31.6435 8.69454C31.4078 8.92428 31.3002 9.25528 31.3559 9.57967L32.0382 13.5581L28.4653 11.6798C28.174 11.5266 27.826 11.5266 27.5347 11.6798L23.9618 13.5581L24.6441 9.57967C24.6998 9.25528 24.5922 8.92428 24.3565 8.69454L21.466 5.87698L25.4606 5.29654C25.7863 5.24921 26.0679 5.04464 26.2136 4.74949L28 1.12978Z" stroke="#FFB800"/>
<path d="M48 1.12978L49.7864 4.74949C49.9321 5.04464 50.2137 5.24921 50.5394 5.29654L54.534 5.87698L51.6435 8.69454C51.4078 8.92428 51.3002 9.25528 51.3559 9.57967L52.0382 13.5581L48.4653 11.6798C48.174 11.5266 47.826 11.5266 47.5347 11.6798L43.9618 13.5581L44.6441 9.57967C44.6998 9.25528 44.5922 8.92428 44.3565 8.69454L41.466 5.87698L45.4606 5.29654C45.7863 5.24921 46.0679 5.04464 46.2136 4.74949L48 1.12978Z" stroke="#FFB800"/>
<path d="M68 1.12978L69.7864 4.74949C69.9321 5.04464 70.2137 5.24921 70.5394 5.29654L74.534 5.87698L71.6435 8.69454C71.4078 8.92428 71.3002 9.25528 71.3559 9.57967L72.0382 13.5581L68.4653 11.6798C68.174 11.5266 67.826 11.5266 67.5347 11.6798L63.9618 13.5581L64.6441 9.57967C64.6998 9.25528 64.5922 8.92428 64.3565 8.69454L61.466 5.87698L65.4606 5.29654C65.7863 5.24921 66.0679 5.04464 66.2136 4.74949L68 1.12978Z" stroke="#FFB800"/>
<path d="M88 1.12978L89.7864 4.74949C89.9321 5.04464 90.2137 5.24921 90.5394 5.29654L94.534 5.87698L91.6435 8.69454C91.4078 8.92428 91.3002 9.25528 91.3559 9.57967L92.0382 13.5581L88.4653 11.6798C88.174 11.5266 87.826 11.5266 87.5347 11.6798L83.9618 13.5581L84.6441 9.57967C84.6998 9.25528 84.5922 8.92428 84.3565 8.69454L81.466 5.87698L85.4606 5.29654C85.7863 5.24921 86.0679 5.04464 86.2136 4.74949L88 1.12978Z" stroke="#FFB800"/>
</svg>
